<svg xmlns="http://www.w3.org/2000/svg" width="36.446" height="37.793" viewBox="0 0 36.446 37.793">
    <path fill="#fff" d="M19.2 2c-5.726 0-8.1 3.673-8.1 8.1a8.041 8.041 0 0 0 .712 2.987 1.579 1.579 0 0 0-.638 1.616c.221 1.732.972 2.173 1.45 2.209a7.046 7.046 0 0 0 2.525 3.988v2.7C13.8 27.646 3 24.947 3 34.4h15.555a12.093 12.093 0 0 1 6.066-14.933 5.964 5.964 0 0 0 1.152-2.549c.478-.036 1.229-.477 1.45-2.209a1.577 1.577 0 0 0-.638-1.616A7.139 7.139 0 0 0 27.3 10.1c0-3.277-1.286-6.074-4.05-6.074C23.248 4.027 22.288 2 19.2 2zM30 20.9a9.449 9.449 0 1 0 9.449 9.449A9.449 9.449 0 0 0 30 20.9zm0 4.05a1.349 1.349 0 0 1 1.35 1.35V29h2.7a1.35 1.35 0 0 1 0 2.7h-2.7v2.7a1.35 1.35 0 0 1-2.7 0v-2.7h-2.7a1.35 1.35 0 1 1 0-2.7h2.7v-2.7A1.349 1.349 0 0 1 30 24.947z" transform="translate(-3 -2.002)"/>
</svg>
