<svg xmlns="http://www.w3.org/2000/svg" width="179" height="179" viewBox="0 0 179 179">
    <g>
        <g fill="#fff" stroke="#1975bb" stroke-width="5px" transform="translate(-871 -302) translate(871 302)">
            <circle cx="89.5" cy="89.5" r="89.5" stroke="none"/>
            <circle cx="89.5" cy="89.5" r="87" fill="none"/>
        </g>
        <path fill="#1975bb" d="M65.889 2C43.658 2 34.444 16.262 34.444 33.446a31.217 31.217 0 0 0 2.764 11.6c-1.111.639-2.938 2.669-2.477 6.275.859 6.724 3.774 8.436 5.63 8.578.708 6.273 7.448 14.3 9.806 15.466v10.479C44.926 101.566 3 91.084 3 127.769h60.391a46.95 46.95 0 0 1 23.553-57.975c2.143-2.987 4.106-6.665 4.473-9.9 1.855-.141 4.77-1.854 5.63-8.578.461-3.611-1.366-5.635-2.477-6.275a27.718 27.718 0 0 0 2.763-11.6c0-12.725-4.994-23.583-15.722-23.583C81.611 9.863 77.885 2 65.889 2zm41.926 73.36a36.685 36.685 0 1 0 36.685 36.687 36.685 36.685 0 0 0-36.685-36.685zm0 15.722a5.239 5.239 0 0 1 5.241 5.241v10.481h10.481a5.241 5.241 0 0 1 0 10.481h-10.481v10.481a5.241 5.241 0 0 1-10.481 0v-10.478H92.093a5.241 5.241 0 1 1 0-10.481h10.481V96.325a5.239 5.239 0 0 1 5.241-5.241z" transform="translate(-871 -302) translate(887 315.998)"/>
    </g>
</svg>
