<svg xmlns="http://www.w3.org/2000/svg" width="180" height="180" viewBox="0 0 180 180">
    <g>
        <g fill="#fff" stroke="#1975bb" stroke-width="5px" transform="translate(-851 -308.813) translate(851 308.813)">
            <circle cx="90" cy="90" r="90" stroke="none"/>
            <circle cx="90" cy="90" r="87.5" fill="none"/>
        </g>
        <path fill="#1975bb" d="M68.774 3C45.523 3 35.887 17.916 35.887 35.889a32.647 32.647 0 0 0 2.89 12.129c-1.162.669-3.073 2.792-2.591 6.563.9 7.032 3.948 8.823 5.888 8.971.74 6.561 7.789 14.954 10.256 16.176v10.961C46.849 107.133 3 96.171 3 134.539h65.485a49.176 49.176 0 0 1 26.2-67.84 14.635 14.635 0 0 0 .792-3.147c1.94-.148 4.989-1.939 5.888-8.971.482-3.777-1.428-5.894-2.59-6.563a28.988 28.988 0 0 0 2.89-12.129c0-13.308-5.224-24.665-16.443-24.665C85.217 11.224 81.32 3 68.774 3zm43.849 71.244a38.368 38.368 0 1 0 38.368 38.368 38.368 38.368 0 0 0-38.368-38.366zm16.443 21.925a5.481 5.481 0 0 1 3.875 9.356l-21.925 21.925a5.478 5.478 0 0 1-7.75 0L92.3 116.489a5.48 5.48 0 1 1 7.75-7.75l7.087 7.087 18.049-18.049a5.461 5.461 0 0 1 3.88-1.606z" transform="translate(-851 -308.813) translate(867.783 317.183)"/>
    </g>
</svg>
