<svg xmlns="http://www.w3.org/2000/svg" width="42" height="42" viewBox="0 0 42 42">
    <g>
        <g fill="#1975bb" stroke="#1975bb" stroke-width="5px" transform="translate(-851 -308.813) translate(851 308.813)">
            <circle cx="21" cy="21" r="21" stroke="none"/>
            <circle cx="21" cy="21" r="18.5" fill="none"/>
        </g>
        <path fill="#fff" d="M18.5 3c-5.48 0-7.751 3.515-7.751 7.751a7.7 7.7 0 0 0 .681 2.859 1.511 1.511 0 0 0-.611 1.547c.212 1.657.93 2.079 1.388 2.114a6.743 6.743 0 0 0 2.417 3.813v2.584C13.335 27.545 3 24.961 3 34h15.434a11.59 11.59 0 0 1 6.174-15.989 3.449 3.449 0 0 0 .187-.742c.457-.035 1.176-.457 1.388-2.114a1.509 1.509 0 0 0-.611-1.547 6.832 6.832 0 0 0 .681-2.859c0-3.137-1.231-5.813-3.876-5.813A4.11 4.11 0 0 0 18.5 3zm10.337 16.793a9.043 9.043 0 1 0 9.043 9.043 9.043 9.043 0 0 0-9.043-9.043zm3.876 5.167a1.292 1.292 0 0 1 .913 2.205l-5.167 5.167a1.291 1.291 0 0 1-1.827 0l-2.584-2.582a1.292 1.292 0 0 1 1.827-1.827l1.67 1.67 4.255-4.254a1.287 1.287 0 0 1 .913-.378z" transform="translate(-851 -308.813) translate(852.663 308.491)"/>
    </g>
</svg>
