<svg xmlns="http://www.w3.org/2000/svg" width="17.298" height="17.298" viewBox="0 0 17.298 17.298">
    <g>
        <path fill="#46506b" d="M11.5 8.649L16.855 3.3a1.513 1.513 0 0 0 0-2.14l-.713-.716a1.513 1.513 0 0 0-2.14 0L8.65 5.8 3.3.443a1.513 1.513 0 0 0-2.14 0l-.715.713a1.513 1.513 0 0 0 0 2.14L5.8 8.649.445 14a1.513 1.513 0 0 0 0 2.14l.713.713a1.513 1.513 0 0 0 2.14 0L8.65 11.5 14 16.854a1.513 1.513 0 0 0 2.14 0l.713-.713a1.513 1.513 0 0 0 0-2.14zm0 0" transform="translate(-161 -563) translate(161 563)"/>
    </g>
</svg>
