<svg xmlns="http://www.w3.org/2000/svg" id="delete" width="27.961" height="29.998" viewBox="0 0 27.961 29.998">
    <defs>
        <style>
            .cls-1{fill:#333}
        </style>
    </defs>
    <g id="Group_460" transform="translate(0 4.504)">
        <g id="Group_459">
            <g id="Group_458">
                <path id="Path_1030" d="M307.664 175.142l-2.348-.086-.509 13.9 2.348.086z" class="cls-1" transform="translate(-287.967 -169.303)"/>
                <path id="Rectangle_152" d="M0 0H2.35V13.902H0z" class="cls-1" transform="translate(12.806 5.796)"/>
                <path id="Path_1031" d="M161.276 188.951l-.509-13.9-2.348.086.509 13.9z" class="cls-1" transform="translate(-150.156 -169.297)"/>
                <path id="Path_1032" d="M17.379 76.867v2.35h2.448l1.942 22.073a1.175 1.175 0 0 0 1.17 1.072h16.8a1.175 1.175 0 0 0 1.17-1.072l1.942-22.072h2.489v-2.35zm21.285 23.144H24.016l-1.83-20.795h18.308z" class="cls-1" transform="translate(-17.379 -76.867)"/>
            </g>
        </g>
    </g>
    <g id="Group_462" transform="translate(8.185)">
        <g id="Group_461">
            <path id="Path_1033" d="M166.71 0h-7.676a1.96 1.96 0 0 0-1.958 1.958v3.72h2.35V2.35h6.892v3.328h2.35v-3.72A1.96 1.96 0 0 0 166.71 0z" class="cls-1" transform="translate(-157.076)"/>
        </g>
    </g>
</svg>
