<svg xmlns="http://www.w3.org/2000/svg" width="30.933" height="24.056" viewBox="0 0 30.933 24.056">
    <path fill="#fff" d="M16.646 5c-5.486 0-7.523 4.337-5.955 8.012a1.389 1.389 0 0 0-.445 1.286c.13 1.335.718 1.654 1.044 1.721a4.7 4.7 0 0 0 1.373 2.948c0 .868-.012 1.595-.077 2.532-1 2.688-7.395 2.065-8.217 6.884a.645.645 0 0 0 .6.673h21.015a.53.53 0 0 0 .58-.692c-.836-4.8-7.216-4.179-8.217-6.865-.065-1-.077-1.664-.077-2.532.457-.2 1.184-1.746 1.315-2.948.326 0 .848-.4 1.044-1.741.065-.734-.2-1.2-.464-1.266 1.044-1.335.855-6.805-3-6.805zM9.377 8.165c-4.13.072-5.94 3.435-4.7 6.311A1.069 1.069 0 0 0 4.35 15.5c.133 1.083.527 1.345.793 1.345A4.277 4.277 0 0 0 6.187 19.2a11.9 11.9 0 0 1-.058 1.464C5.592 22.4 0 22.27 0 26.524a.616.616 0 0 0 .619.633h2.8c.945-2.735 3.514-3.788 5.452-4.57a5.93 5.93 0 0 0 2.494-1.4c.036-.589.056-1.088.058-1.642a6.727 6.727 0 0 1-1.237-2.671A3.335 3.335 0 0 1 9.009 14.4a2.9 2.9 0 0 1 .29-1.6 7.135 7.135 0 0 1 .078-4.635zm14.132 0a12.452 12.452 0 0 0-1.953.158 7.531 7.531 0 0 1 .077 4.53 3.131 3.131 0 0 1 .232 1.543l-.019.04v.04a3.593 3.593 0 0 1-1.16 2.414 6.95 6.95 0 0 1-1.179 2.631c0 .544.022 1.034.058 1.662a5.945 5.945 0 0 0 2.494 1.4c1.936.779 4.5 1.835 5.452 4.57h2.8a.6.6 0 0 0 .619-.613c0-4.9-5.295-3.737-6.09-5.974a10.05 10.05 0 0 1-.077-1.424 3.838 3.838 0 0 0 1.005-2.295c.266 0 .66-.279.793-1.365.065-.542-.13-.942-.329-1.009.8-1.086.667-5.361-2.32-5.361z" transform="translate(0 -5)"/>
</svg>
