<svg xmlns="http://www.w3.org/2000/svg" width="198" height="180.421" viewBox="0 0 198 180.421">
  <g id="Group_13" data-name="Group 13" transform="translate(-17 -97)">
    <path id="Polygon_2" data-name="Polygon 2" d="M66.5,0,133,67H0Z" transform="translate(153 164) rotate(180)" fill="#0f67cb"/>
    <path id="Subtraction_396" data-name="Subtraction 396" d="M-1970.716,708.728V668.434H-1994L-1924.159,601l53.587,51.739a19.451,19.451,0,0,0-4.711,1.863,15.2,15.2,0,0,0-6.609,7.37,25.079,25.079,0,0,0-1.821,6.461h-8.69V653.06h-6.855v15.374h6.855v25.073h-6.855V668.434h-22.319V644.262h18.471v-6.589h-44.255v6.589h18.4v26.452l2.362-2.151.143-.13h4.883v25.073h-7.388V670.714l-41.749,38.012Zm71.458-71.055h0v7.884h6.855v-7.884Zm33.591,56.748a19.807,19.807,0,0,1-7.489-1.357,16.4,16.4,0,0,1-5.86-4.07,17.517,17.517,0,0,1-3.785-6.6,29.168,29.168,0,0,1-1.262-8.955,34.368,34.368,0,0,1,.351-5h7.044a30.607,30.607,0,0,0-.348,4.812c0,5.408,1.051,9.393,3.123,11.844a10.2,10.2,0,0,0,8.15,3.695,9.652,9.652,0,0,0,6.741-2.475c1.794-1.643,2.947-4.206,3.428-7.618l6.74.876a20.408,20.408,0,0,1-1.966,6.213,15.825,15.825,0,0,1-3.69,4.7,15.687,15.687,0,0,1-5.07,2.956A18.344,18.344,0,0,1-1865.668,694.421Zm29.593-.912h-6.856v-27.68l4.477,4.215h13.337l-1.323-1.976,15.464-15.006h-8.874l-16.225,16.453V637.673h-6.856v28.15l-40.911-38.522,24.985-24.575,62.357,59.844v7.471h-28.616l15.7,23.464-8.455,0-13.367-20.681-4.837,4.647v16.034Zm-21.342-53.289.311,2.641a5.671,5.671,0,0,0,1.814.344,4.084,4.084,0,0,0,2.312-.648,5.594,5.594,0,0,0,1.719-2.039,33.049,33.049,0,0,0,1.577-3.766l6.313-16.875h-2.812l-3.546,9.672a37.978,37.978,0,0,0-1.156,3.781c-.35-1.328-.754-2.622-1.2-3.844l-3.454-9.609h-3.03l6.3,16.625c-.109.287-.193.518-.249.688a13.988,13.988,0,0,1-.859,2.094,2.582,2.582,0,0,1-.922.875,3.12,3.12,0,0,1-1.5.312,6.3,6.3,0,0,1-1.608-.25Zm-13.908-9.14-2.781.437a6.279,6.279,0,0,0,2.164,3.984,7.834,7.834,0,0,0,4.931,1.344,8.668,8.668,0,0,0,3.5-.68,5.324,5.324,0,0,0,2.366-1.922,4.739,4.739,0,0,0,.821-2.649,4.142,4.142,0,0,0-.672-2.407,4.246,4.246,0,0,0-1.85-1.476,34.668,34.668,0,0,0-4.164-1.3c-1.368-.373-2.2-.615-2.484-.719a2.5,2.5,0,0,1-1.079-.75,1.562,1.562,0,0,1-.343-.985,1.868,1.868,0,0,1,.828-1.5,4.612,4.612,0,0,1,2.765-.641,3.991,3.991,0,0,1,2.539.718,3.02,3.02,0,0,1,1.086,2l2.75-.375a6.007,6.007,0,0,0-.969-2.57,4.692,4.692,0,0,0-2.18-1.524,9.665,9.665,0,0,0-3.431-.562,8.541,8.541,0,0,0-2.429.337,5.817,5.817,0,0,0-1.788.82,4.566,4.566,0,0,0-1.383,1.57,4.286,4.286,0,0,0-.508,2.055,4.2,4.2,0,0,0,.617,2.227,4.176,4.176,0,0,0,1.813,1.578,26.391,26.391,0,0,0,4.289,1.352,12.26,12.26,0,0,1,2.875.953,1.713,1.713,0,0,1,.828,1.5,2.37,2.37,0,0,1-.939,1.851,4.406,4.406,0,0,1-2.875.789,4.56,4.56,0,0,1-2.992-.891,3.9,3.9,0,0,1-1.306-2.562Zm17.007,37.354h-22.351a13.69,13.69,0,0,1,2.889-6.937,10.682,10.682,0,0,1,8.416-3.713h.015l-5.224-5.044a20.431,20.431,0,0,1,4.943-.593,16.859,16.859,0,0,1,10.778,3.332,15.348,15.348,0,0,1,5.369,9.464l-6.665,1.029a11.1,11.1,0,0,0-3.371-6.132,8.752,8.752,0,0,0-5.831-2.057l11.03,10.649Z" transform="translate(2011 -431.307)" fill="#0f67cb"/>
    <path id="Path_362" data-name="Path 362" d="M2090.535-433.785l66.793-69.447h49.542l-91.122,94.464Z" transform="translate(-1994.702 600.232)" fill="#0f67cb"/>
    <rect id="Rectangle_926" data-name="Rectangle 926" width="4" height="142" transform="translate(211 97)" fill="#0f67cb"/>
    <rect id="Rectangle_927" data-name="Rectangle 927" width="4" height="140" transform="translate(17 97)" fill="#0f67cb"/>
  </g>
</svg>
