<svg xmlns="http://www.w3.org/2000/svg" width="154" height="153.954" viewBox="0 0 274 273.954">
    <defs>
        <style>
            .cls-2{fill:#fff}.cls-3{fill:#f1bc19}.cls-5{fill:#77cbd2}.cls-9{fill:#be7841}.cls-10{fill:#472b29}
        </style>
    </defs>
    <g id="Group_587" transform="translate(-594 -397) translate(594 397)">
        <g id="Group_397">
            <g id="Ellipse_79" fill="#fff" stroke="#265ecd" stroke-width="5px">
                <ellipse cx="137" cy="136" stroke="none" rx="137" ry="136"/>
                <ellipse cx="137" cy="136" fill="none" rx="134.5" ry="133.5"/>
            </g>
        </g>
        <g id="user">
            <path id="Path_11150" d="M22.537 116.49a3.137 3.137 0 1 0 3.137 3.137 3.137 3.137 0 0 0-3.137-3.137zM228.525 30.4a2.44 2.44 0 1 0 2.44 2.44 2.44 2.44 0 0 0-2.44-2.44z" class="cls-2" transform="translate(13.363 40.006)"/>
            <path id="Path_11151" d="M217.872 11.2a3.137 3.137 0 1 0 3.137 3.137 3.137 3.137 0 0 0-3.137-3.137zM23.037 191.048a3.137 3.137 0 1 0 3.137 3.137 3.137 3.137 0 0 0-3.137-3.137z" class="cls-3" transform="translate(14.606 -7.715)"/>
            <path id="Path_11152" fill="#c0e5e4" d="M142.555 11.9A130.355 130.355 0 1 0 272.91 142.255 130.355 130.355 0 0 0 142.555 11.9z" transform="translate(-4.532 -5.975)"/>
            <path id="Path_11153" d="M92.142 10.2a13.942 13.942 0 1 0 13.942 13.942A13.942 13.942 0 0 0 92.142 10.2z" class="cls-3" transform="translate(159.506 -10.2)"/>
            <path id="Path_11154" d="M90.922 21.4a6.622 6.622 0 1 0 6.622 6.622 6.622 6.622 0 0 0-6.622-6.622z" class="cls-5" transform="translate(174.667 17.637)"/>
            <path id="Path_11155" fill="#fbcd59" d="M244.22 111.081a6.622 6.622 0 1 0 6.622 6.622 6.622 6.622 0 0 0-6.622-6.622zM23.942 58.8a13.942 13.942 0 1 0 13.941 13.942A13.942 13.942 0 0 0 23.942 58.8z" transform="translate(-10 110.592)"/>
            <path id="Path_11156" d="M29.022 85a6.622 6.622 0 1 0 6.622 6.622A6.622 6.622 0 0 0 29.022 85z" class="cls-5" transform="translate(20.819 175.71)"/>
            <path id="Path_11157" d="M226.517 27.8a6.274 6.274 0 1 0 6.274 6.274 6.274 6.274 0 0 0-6.274-6.274zM24.014 98.9a8.714 8.714 0 1 0 8.714 8.714 8.714 8.714 0 0 0-8.714-8.714z" class="cls-2" transform="translate(3.173 33.543)"/>
            <path id="Path_11158" fill="#fabf82" d="M167.765 101.568c-1.394-7.319-4.531-11.85-11.5-13.942-.349 0-.7-.349-1.046-.349-.7-.349-1.394-.349-2.091-.7-4.183-1.743-30.323-11.5-30.323-11.5a6.576 6.576 0 0 1-4.182-3.834c-1.394-2.788-.7-10.108-.7-10.108s-10.8 3.834-17.427 4.88C93.874 66.714 79.584 58 79.584 58s-.349 10.456-.7 12.9c-.349 1.743-2.44 3.485-4.531 3.834l-25.44 9.407a29.584 29.584 0 0 0-7.668 3.137c-6.274 3.834-9.411 9.759-11.153 14.639 0 0-1.743 11.5-1.743 11.85 0 1.743-.349 3.485-.349 5.228 27.186 18.473 48.8 23.352 86.09 21.958 17.079-.7 42.174-9.062 55.418-15.684a194.807 194.807 0 0 0-1.743-23.701z" transform="translate(34.738 108.603)"/>
            <path id="Path_11159" fill="#88cdd7" d="M156.264 73.211c-.349 0-.7-.349-1.046-.349-.7-.349-1.394-.349-2.091-.7-2.788-1.046-13.593-5.228-21.61-8.016h-.349c-9.062 4.182-21.261 10.8-32.763 10.8S75.4 68.68 65.643 63.8l-1.046.349-15.684 5.576a29.584 29.584 0 0 0-7.668 3.137C34.971 76.7 31.834 82.621 30.091 87.5c0 0-1.743 11.5-1.743 11.85 0 1.743-.349 18.821-.349 20.913 27.186 18.473 48.8 23.352 86.09 21.958 17.079-.7 42.174-9.062 55.418-15.684-.7-14.639-2.091-39.037-2.091-39.037-1.045-7.667-4.182-11.85-11.152-14.289z" transform="translate(34.738 123.019)"/>
            <path id="Path_11160" d="M42.625 97.1c-.7-1.046-13.245-29.975-3.485-49.144 4.183-8.016 11.5-13.245 21.61-15.684A35.5 35.5 0 0 1 80.964 26a33.014 33.014 0 0 1 17.079 4.531q4.182 2.614 7.319 4.183c6.274 3.485 8.365 4.88 11.85 4.88h3.137c3.137 0 4.183 1.743 4.183 3.137a17.061 17.061 0 0 1-2.091 9.411c-1.046 2.44-1.743 4.531-1.394 6.622 6.274 20.913-3.485 37.991-3.834 39.037l-2.44 4.88v-6.275s0-16.381-3.834-26.838a34.859 34.859 0 0 1-17.427 4.182c-11.153 0-23.7-4.183-36.248-11.85C46.11 70.613 46.11 96.406 46.11 96.406v8.016z" class="cls-9" transform="translate(53.224 29.07)"/>
            <path id="Path_11161" d="M82.622 28.885A33.324 33.324 0 0 1 99 33.416c12.2 6.971 14.639 9.062 20.215 9.062h3.137c1.394 0 2.44.349 2.44 1.743.7 6.274-4.531 11.5-3.137 16.381 6.274 20.564-3.834 37.643-3.834 37.643s0-18.821-4.88-29.278c-4.88 3.137-11.153 4.88-18.473 4.88-10.8 0-23.352-3.834-36.248-12.2-12.9 8.016-12.548 35.9-12.548 35.9s-24.4-53.676 17.079-62.738a37.075 37.075 0 0 1 19.867-5.925m0-3.485a38.079 38.079 0 0 0-20.908 6.623c-11.153 2.44-18.473 8.016-23 16.381C28.6 68.619 41.843 97.9 42.191 99.291l6.622 14.639V97.548c0-6.971 1.743-25.1 9.411-32.414 12.2 7.668 24.747 11.5 36.248 11.5 5.925 0 11.85-1.046 16.382-3.485 3.137 10.108 3.137 24.4 3.137 24.4v12.9l6.622-11.153c.349-.7 10.8-18.473 4.182-40.431-.349-1.394.349-3.137 1.394-5.577 1.046-2.788 2.44-6.274 2.091-10.456 0-1.046-1.046-4.531-5.925-4.531h-3.137c-3.137 0-4.88-1.046-11.153-4.531-2.091-1.046-4.183-2.44-7.319-4.183A42.93 42.93 0 0 0 82.622 25.4z" class="cls-10" transform="translate(51.915 27.578)"/>
            <path id="Path_11162" fill="#00a5a5" d="M35.646 95.633a.924.924 0 0 1-1.046-1.046V80.646a1.046 1.046 0 1 1 2.091 0v13.941a.924.924 0 0 1-1.045 1.046zm91.667 2.44a.924.924 0 0 1-1.046-1.046V80.994a1.046 1.046 0 1 1 2.091 0v16.033a.924.924 0 0 1-1.046 1.046z" transform="translate(51.141 162.288)"/>
            <path id="Path_11163" fill="#fddbbc" d="M126.512 79.293h-1.394c-3.485 0-3.137 1.046-2.788-1.046.349-3.834-1.394-18.473-1.394-19.518 0-15.684-16.381-28.232-36.6-28.929h-.7c-20.215.7-36.6 13.245-36.6 28.929 0 .7-.349 15.684-.349 19.518 0 2.091-.7.7-4.183 1.046h-1.385c-3.834.349-6.622 2.44-7.319 5.577.349.349 2.091 12.9 4.88 18.124 1.394 2.788 3.834 3.137 6.274 4.88a5.311 5.311 0 0 1 2.091 3.485c1.394 5.577 5.228 10.108 9.411 14.29 2.091 2.091 15.684 16.381 27.535 15.684 11.85-.349 25.444-13.942 27.535-15.684 4.183-4.183 8.016-8.714 9.411-14.29.349-1.394.7-2.788 2.091-3.485 2.44-1.743 4.88-2.091 6.274-4.88 2.788-4.88 4.531-17.776 4.88-18.124-1.047-3.137-3.836-5.228-7.67-5.577z" transform="translate(49.153 38.514)"/>
            <path id="Path_11164" fill="#512c2b" d="M66.941 76.9a8.728 8.728 0 0 0 6.274-2.788v-.7h-.7C71.472 74.8 69.38 75.5 66.941 75.5a7.359 7.359 0 0 1-5.577-2.091h-.7a.483.483 0 0 0 0 .7 8.162 8.162 0 0 0 6.277 2.791zm-7.668-32.419l1.394-2.788a38.469 38.469 0 0 0-19.867.7l1.743 2.788a34.069 34.069 0 0 1 16.73-.7zm32.066 0l1.394-2.788a38.469 38.469 0 0 0-19.867.7l1.743 2.788a34.069 34.069 0 0 1 16.73-.7zm-41.128 4.183a4.2 4.2 0 0 0-3.485 2.44h.7a2.44 2.44 0 1 1 0 4.88 1.28 1.28 0 0 1-1.046-.349c.7 2.44 2.091 3.834 4.183 3.834 2.44 0 4.531-2.44 4.531-5.577-.701-2.792-2.794-5.228-4.883-5.228zm33.112 0a3.66 3.66 0 0 0-3.137 1.743h.7a2.44 2.44 0 0 1 0 4.88 1.917 1.917 0 0 1-1.746-1.047c0 3.137 2.091 5.577 4.531 5.577s4.529-2.44 4.529-5.577c-.347-3.14-2.438-5.576-4.878-5.576zm2.091 34.506c.349 0 .349-.349 0-.7 0-.349-.349-.349-.7 0-3.834 3.137-10.456 4.88-17.776 4.88S53 85.609 49.165 82.472h-.7v.7a31.561 31.561 0 0 0 18.473 5.925c6.974-.002 13.944-2.097 18.475-5.928zM71.82 101.642c.349 0 .349-.349.349-.7a1.217 1.217 0 0 0-.349-.7h-9.062c-.349.349-.349.349-.349.7a1.217 1.217 0 0 0 .349.7z" transform="translate(66.551 65.658)"/>
            <path id="Path_11165" d="M103.234 230.16c-31.02 0-51.236-6.274-74.937-22.307a2.662 2.662 0 0 1-.7-1.743v-3.485c0-7.668.349-23.352 2.091-29.626 2.44-8.365 5.577-11.85 11.85-15.684a55.612 55.612 0 0 1 8.016-3.485l24.746-9.062a4.907 4.907 0 0 0 3.485-2.788c0-.349.349-2.091.7-6.971a86.4 86.4 0 0 1-7.319-5.577c-5.577-5.228-8.714-10.108-9.759-15.336a5.25 5.25 0 0 0-1.394-2.788 7.291 7.291 0 0 0-2.091-1.394c-1.743-1.046-3.485-2.091-4.531-4.183-2.788-5.577-5.228-15.684-5.228-19.17v-.349c.7-3.834 4.531-6.622 9.062-6.971h3.835c0-4.183 0-13.245.349-17.079V60.42c0-16.381 16.73-29.975 37.643-31.02h.348l.349 1.743V29.4h.349c21.261.7 37.991 14.29 37.991 31.02a11.212 11.212 0 0 0 .349 2.788c.7 6.274 1.394 13.245 1.046 16.033v.349h2.44c4.531.349 8.016 3.137 9.062 6.971v.349c0 3.834-2.091 13.942-5.228 19.17a9.943 9.943 0 0 1-4.531 4.183 7.291 7.291 0 0 0-2.091 1.394 4.167 4.167 0 0 0-1.394 2.788c-1.394 5.228-4.531 10.108-9.759 15.336-1.046.7-4.182 3.485-7.668 6.274a21.775 21.775 0 0 0 .7 6.274 4.29 4.29 0 0 0 3.137 2.788c1.394.349 26.141 9.759 30.323 11.5a4.954 4.954 0 0 0 2.091.7c.349 0 .7.349 1.046.349 7.319 2.091 11.153 6.971 12.9 15.336v.349s1.394 24.049 2.091 39.037a1.917 1.917 0 0 1-1.046 1.743c-13.942 6.971-39.385 15.336-56.115 16.033-4.192-.352-8.374-.004-12.208-.004zm-72.149-24.746c25.792 17.427 47.053 22.655 84.347 20.913 15.684-.7 39.734-8.365 53.676-14.987-.7-14.29-1.743-35.9-1.743-37.643-1.394-7.319-4.182-10.8-10.456-12.548-.349 0-.7-.349-1.394-.349-.7-.349-1.394-.349-2.091-.7-4.182-1.743-29.975-11.153-30.323-11.5a8.335 8.335 0 0 1-5.228-4.531c-.7-1.743-1.046-4.531-1.046-8.714a1.811 1.811 0 0 1 .7-1.394c4.183-3.137 7.319-5.577 8.016-6.274 4.88-4.88 7.668-9.062 8.714-13.593a5.935 5.935 0 0 1 2.788-4.531c.7-.7 1.743-1.046 2.44-1.743a8.851 8.851 0 0 0 3.485-2.788c2.788-4.88 4.531-13.942 4.531-17.079a6.588 6.588 0 0 0-5.577-4.183h-1.743c-2.091 0-2.788 0-3.485-1.046a3.318 3.318 0 0 1-.7-2.44v-.349c.349-2.44-.7-11.153-1.046-15.336a15.323 15.323 0 0 1-.349-3.137c0-14.639-15.336-26.838-34.854-27.535h-.7c-19.518.7-34.854 12.9-34.854 27.535v1.743c0 4.183-.349 14.639-.349 17.776a3.318 3.318 0 0 1-.7 2.44 2.631 2.631 0 0 1-2.788.349 5.694 5.694 0 0 0-2.44 0h-1.387c-2.788.349-5.228 1.743-5.577 4.182 0 3.137 2.091 12.548 4.531 17.079a5.749 5.749 0 0 0 3.485 2.788 10.592 10.592 0 0 1 2.44 1.743 7.359 7.359 0 0 1 2.44 4.531c1.046 4.531 3.834 8.714 8.714 13.593.7.7 3.834 3.137 7.668 5.925a2.642 2.642 0 0 1 .7 1.394c-.349 4.531-.349 7.319-.7 8.714-.7 2.788-3.137 4.531-5.925 5.228l-24.746 9.062a23.237 23.237 0 0 0-7.319 3.137c-5.577 3.485-8.365 5.925-10.108 13.593-1.394 5.925-1.743 21.958-1.743 28.929.696.003.696 1.049.696 1.746z" class="cls-10" transform="translate(33.743 37.52)"/>
            <path id="Path_11166" fill="#895d3d" d="M121.393 56.543l-2.091-.349.7-6.274-3.485 1.394-.7-2.091 5.228-2.091h1.046a1.28 1.28 0 0 1 .349 1.046zm-84.347-1.394L36 47.132a1.28 1.28 0 0 1 .349-1.046.654.654 0 0 1 1.046 0l5.228 2.091-.7 2.091-3.483-1.393.7 6.274z" transform="translate(54.621 78.343)"/>
            <path id="Path_11167" d="M38.1 75.369a.75.75 0 0 1-.7-.7l.7-29.969a.75.75 0 0 1 .7-.7.75.75 0 0 1 .7.7l-.7 29.975a.75.75 0 0 1-.7.694zm74.588 0a.75.75 0 0 1-.7-.7l-.7-29.975a.75.75 0 0 1 .7-.7.75.75 0 0 1 .7.7l.7 29.975a.75.75 0 0 1-.7.7zm-37.297 31.717c-7.319 0-19.867-9.062-20.564-9.411a1.28 1.28 0 0 1-.349-1.046c0-.349.7-.349 1.046-.349 0 0 13.593 9.759 20.215 9.062s17.427-8.365 17.427-8.365c.349-.349 1.046-.349 1.046.349s.349 1.046-.349 1.046c-.349.349-11.153 8.016-18.124 8.714z" class="cls-10" transform="translate(58.101 73.807)"/>
            <path id="Path_11168" d="M122.2 41.35c-.349-2.091-2.44-1.743-4.531-1.394-6.622.349-8.016-1.743-21.61-9.062a32.969 32.969 0 0 0-35.9 2.091c-41.474 9.062-17.076 62.738-17.076 62.738s0-28.232 12.9-36.6c21.606 13.944 42.17 15.687 54.717 7.322 4.88 10.8 4.88 29.278 4.88 29.278s10.108-17.079 3.834-37.643c-2.091-5.58 3.486-10.456 2.786-16.73z" class="cls-9" transform="translate(54.508 30.45)"/>
            <g id="Group_586" transform="translate(96.198 87.223)">
                <path id="Path_11169" d="M112.537 73.478h-1.743c0-.349 0-17.776-4.182-28.232-13.593 8.365-34.506 5.228-55.07-7.668-12.2 8.714-12.2 35.551-12.2 35.551H37.6c0-1.046 0-28.929 13.245-37.643a.654.654 0 0 1 1.046 0c20.564 12.9 41.477 15.684 54.721 7.319.349 0 .349-.349.7 0 .349 0 .349.349.7.349 4.525 11.154 4.525 29.278 4.525 30.324z" class="cls-10" transform="translate(-37.6 -35.225)"/>
            </g>
        </g>
    </g>
</svg>
