<svg xmlns="http://www.w3.org/2000/svg" xmlns:xlink="http://www.w3.org/1999/xlink" width="1921.77" height="196.666" viewBox="0 0 1921.77 196.666">
    <defs>
        <linearGradient id="linear-gradient" x1="0.5" x2="0.5" y2="1" gradientUnits="objectBoundingBox">
            <stop offset="0" stop-color="#4cb0dd"/>
            <stop offset="1" stop-color="#0f67c4"/>
        </linearGradient>
    </defs>
    <path id="Path_869" data-name="Path 869" d="M4398.23,1057.1s101.107,4.265,152.843-55.913c68.783-85.724,181.061-56.538,242.1,0,75.494,60.565,123.852,37.993,192.883-14.247s119.438-50.6,217.247,14.247c54.088,35.858,75.132,58.138,101.906,56.159,21.18-1.564,46.906-19.281,90.977-56.159,98.59-82.5,188.751-17.456,292.3,36.367s203.1-7.873,261.985-50.615c32.8-23.807,61.457-42.734,102.342-41.88,32.1.67,62.119,6.141,99.1,37.232,76.13,79.7,167.213,74.841,167.213,74.841l.875-195.25H4398.23Z" transform="translate(-4398.23 -861.882)" fill="url(#linear-gradient)"/>
</svg>
